<svg width="390" height="156" viewBox="0 0 390 156" fill="none" xmlns="http://www.w3.org/2000/svg">
<path d="M3.25977 139.349H6.38539L9.39502 145.113H9.52391L12.5335 139.349H15.6592L10.8451 148.001V152.732H8.07388V148.001L3.25977 139.349Z" fill="white"/>
<path d="M19.5308 152.928C18.5297 152.928 17.664 152.713 16.9336 152.281C16.2075 151.846 15.6468 151.24 15.2515 150.465C14.8563 149.685 14.6586 148.781 14.6586 147.753C14.6586 146.716 14.8563 145.81 15.2515 145.034C15.6468 144.254 16.2075 143.649 16.9336 143.218C17.664 142.782 18.5297 142.564 19.5308 142.564C20.5318 142.564 21.3954 142.782 22.1215 143.218C22.8519 143.649 23.4147 144.254 23.81 145.034C24.2052 145.81 24.4029 146.716 24.4029 147.753C24.4029 148.781 24.2052 149.685 23.81 150.465C23.4147 151.24 22.8519 151.846 22.1215 152.281C21.3954 152.713 20.5318 152.928 19.5308 152.928ZM19.5436 150.772C19.9991 150.772 20.3793 150.641 20.6843 150.38C20.9894 150.114 21.2192 149.752 21.3739 149.295C21.5329 148.838 21.6124 148.317 21.6124 147.733C21.6124 147.149 21.5329 146.629 21.3739 146.171C21.2192 145.714 20.9894 145.352 20.6843 145.087C20.3793 144.821 19.9991 144.688 19.5436 144.688C19.0839 144.688 18.6973 144.821 18.3836 145.087C18.0743 145.352 17.8401 145.714 17.6812 146.171C17.5265 146.629 17.4491 147.149 17.4491 147.733C17.4491 148.317 17.5265 148.838 17.6812 149.295C17.8401 149.752 18.0743 150.114 18.3836 150.38C18.6973 150.641 19.0839 150.772 19.5436 150.772Z" fill="white"/>
<path d="M32.5359 148.459V142.695H35.2813V152.732H32.6455V150.909H32.5424C32.319 151.497 31.9473 151.97 31.4275 152.327C30.9119 152.684 30.2825 152.863 29.5392 152.863C28.8776 152.863 28.2954 152.71 27.7927 152.406C27.29 152.101 26.8969 151.667 26.6134 151.105C26.3341 150.543 26.1923 149.87 26.188 149.086V142.695H28.9334V148.589C28.9377 149.182 29.0945 149.65 29.4039 149.994C29.7132 150.338 30.1278 150.51 30.6477 150.51C30.9785 150.51 31.2878 150.434 31.5757 150.282C31.8636 150.125 32.0956 149.894 32.2717 149.589C32.4522 149.284 32.5402 148.907 32.5359 148.459Z" fill="white"/>
<path d="M37.4773 152.732V142.695H40.139V144.446H40.2421C40.4225 143.823 40.7254 143.353 41.1508 143.035C41.5761 142.712 42.0659 142.551 42.6201 142.551C42.7576 142.551 42.9058 142.56 43.0648 142.577C43.2238 142.595 43.3634 142.619 43.4837 142.649V145.119C43.3548 145.08 43.1765 145.045 42.9488 145.015C42.7211 144.984 42.5127 144.969 42.3237 144.969C41.9198 144.969 41.5589 145.058 41.241 145.237C40.9273 145.411 40.6782 145.655 40.4934 145.969C40.313 146.282 40.2227 146.644 40.2227 147.054V152.732H37.4773Z" fill="white"/>
<path d="M51.5394 139.349L54.7295 149.517H54.852L58.0485 139.349H61.1419L56.592 152.732H52.9959L48.4396 139.349H51.5394Z" fill="white"/>
<path d="M62.6789 152.732V142.695H65.4243V152.732H62.6789ZM64.0581 141.401C63.6499 141.401 63.2997 141.264 63.0076 140.989C62.7197 140.71 62.5758 140.377 62.5758 139.989C62.5758 139.606 62.7197 139.277 63.0076 139.003C63.2997 138.724 63.6499 138.584 64.0581 138.584C64.4662 138.584 64.8142 138.724 65.1021 139.003C65.3942 139.277 65.5403 139.606 65.5403 139.989C65.5403 140.377 65.3942 140.71 65.1021 140.989C64.8142 141.264 64.4662 141.401 64.0581 141.401Z" fill="white"/>
<path d="M75.8597 145.557L73.3463 145.714C73.3034 145.496 73.211 145.3 73.0692 145.126C72.9274 144.947 72.7405 144.806 72.5085 144.701C72.2808 144.592 72.008 144.538 71.6901 144.538C71.2647 144.538 70.906 144.629 70.6138 144.812C70.3217 144.991 70.1756 145.23 70.1756 145.531C70.1756 145.771 70.2701 145.973 70.4592 146.139C70.6482 146.304 70.9726 146.437 71.4323 146.537L73.2239 146.903C74.1863 147.104 74.9038 147.426 75.3764 147.87C75.849 148.315 76.0853 148.899 76.0853 149.622C76.0853 150.28 75.8941 150.857 75.5117 151.353C75.1336 151.85 74.6138 152.238 73.9521 152.517C73.2948 152.791 72.5365 152.928 71.6772 152.928C70.3668 152.928 69.3228 152.652 68.5451 152.098C67.7718 151.541 67.3185 150.783 67.1853 149.824L69.8856 149.681C69.9672 150.086 70.1648 150.395 70.4785 150.608C70.7921 150.818 71.1938 150.922 71.6836 150.922C72.1648 150.922 72.5515 150.828 72.8437 150.641C73.1401 150.449 73.2905 150.203 73.2948 149.903C73.2905 149.65 73.1852 149.443 72.979 149.282C72.7728 149.116 72.4548 148.99 72.0252 148.903L70.3109 148.557C69.3442 148.36 68.6246 148.021 68.152 147.537C67.6837 147.054 67.4495 146.437 67.4495 145.688C67.4495 145.043 67.6214 144.488 67.9651 144.021C68.3131 143.555 68.8007 143.196 69.428 142.943C70.0596 142.69 70.7986 142.564 71.645 142.564C72.8952 142.564 73.8791 142.832 74.5966 143.368C75.3184 143.904 75.7394 144.633 75.8597 145.557Z" fill="white"/>
<path d="M77.814 152.732V142.695H80.5594V152.732H77.814ZM79.1932 141.401C78.785 141.401 78.4349 141.264 78.1427 140.989C77.8549 140.71 77.7109 140.377 77.7109 139.989C77.7109 139.606 77.8549 139.277 78.1427 139.003C78.4349 138.724 78.785 138.584 79.1932 138.584C79.6013 138.584 79.9493 138.724 80.2372 139.003C80.5294 139.277 80.6754 139.606 80.6754 139.989C80.6754 140.377 80.5294 140.71 80.2372 140.989C79.9493 141.264 79.6013 141.401 79.1932 141.401Z" fill="white"/>
<path d="M87.2312 152.928C86.2301 152.928 85.3644 152.713 84.634 152.281C83.9079 151.846 83.3473 151.24 82.952 150.465C82.5567 149.685 82.3591 148.781 82.3591 147.753C82.3591 146.716 82.5567 145.81 82.952 145.034C83.3473 144.254 83.9079 143.649 84.634 143.218C85.3644 142.782 86.2301 142.564 87.2312 142.564C88.2323 142.564 89.0958 142.782 89.8219 143.218C90.5523 143.649 91.1152 144.254 91.5104 145.034C91.9057 145.81 92.1033 146.716 92.1033 147.753C92.1033 148.781 91.9057 149.685 91.5104 150.465C91.1152 151.24 90.5523 151.846 89.8219 152.281C89.0958 152.713 88.2323 152.928 87.2312 152.928ZM87.2441 150.772C87.6995 150.772 88.0797 150.641 88.3848 150.38C88.6898 150.114 88.9197 149.752 89.0744 149.295C89.2333 148.838 89.3128 148.317 89.3128 147.733C89.3128 147.149 89.2333 146.629 89.0744 146.171C88.9197 145.714 88.6898 145.352 88.3848 145.087C88.0797 144.821 87.6995 144.688 87.2441 144.688C86.7844 144.688 86.3977 144.821 86.0841 145.087C85.7747 145.352 85.5406 145.714 85.3816 146.171C85.2269 146.629 85.1496 147.149 85.1496 147.733C85.1496 148.317 85.2269 148.838 85.3816 149.295C85.5406 149.752 85.7747 150.114 86.0841 150.38C86.3977 150.641 86.7844 150.772 87.2441 150.772Z" fill="white"/>
<path d="M96.6339 146.929V152.732H93.8885V142.695H96.505V144.466H96.621C96.8401 143.882 97.2074 143.42 97.723 143.08C98.2386 142.736 98.8637 142.564 99.5984 142.564C100.286 142.564 100.885 142.717 101.396 143.022C101.908 143.327 102.305 143.762 102.589 144.329C102.872 144.891 103.014 145.561 103.014 146.341V152.732H100.269V146.838C100.273 146.224 100.118 145.744 99.8046 145.4C99.491 145.052 99.0592 144.877 98.5092 144.877C98.1397 144.877 97.8132 144.958 97.5297 145.119C97.2504 145.28 97.0313 145.516 96.8723 145.825C96.7176 146.13 96.6382 146.498 96.6339 146.929Z" fill="white"/>
<path d="M108.162 150.903L108.091 151.621C108.035 152.196 107.927 152.769 107.769 153.34C107.614 153.915 107.451 154.436 107.279 154.902C107.111 155.368 106.976 155.734 106.873 156H105.094C105.158 155.743 105.247 155.383 105.358 154.921C105.47 154.464 105.575 153.95 105.674 153.379C105.773 152.808 105.835 152.227 105.861 151.634L105.893 150.903H108.162Z" fill="white"/>
<path d="M126.432 146.041C126.432 147.5 126.159 148.742 125.614 149.765C125.072 150.789 124.333 151.571 123.397 152.111C122.464 152.647 121.416 152.915 120.252 152.915C119.079 152.915 118.026 152.645 117.094 152.105C116.162 151.565 115.425 150.783 114.883 149.759C114.342 148.735 114.071 147.496 114.071 146.041C114.071 144.581 114.342 143.34 114.883 142.316C115.425 141.292 116.162 140.512 117.094 139.976C118.026 139.436 119.079 139.166 120.252 139.166C121.416 139.166 122.464 139.436 123.397 139.976C124.333 140.512 125.072 141.292 125.614 142.316C126.159 143.34 126.432 144.581 126.432 146.041ZM123.603 146.041C123.603 145.095 123.463 144.298 123.184 143.649C122.909 143 122.52 142.508 122.018 142.172C121.515 141.837 120.926 141.669 120.252 141.669C119.577 141.669 118.989 141.837 118.486 142.172C117.983 142.508 117.592 143 117.313 143.649C117.038 144.298 116.901 145.095 116.901 146.041C116.901 146.986 117.038 147.783 117.313 148.432C117.592 149.081 117.983 149.574 118.486 149.909C118.989 150.245 119.577 150.412 120.252 150.412C120.926 150.412 121.515 150.245 122.018 149.909C122.52 149.574 122.909 149.081 123.184 148.432C123.463 147.783 123.603 146.986 123.603 146.041Z" fill="white"/>
<path d="M134.796 148.459V142.695H137.541V152.732H134.905V150.909H134.802C134.579 151.497 134.207 151.97 133.687 152.327C133.171 152.684 132.542 152.863 131.799 152.863C131.137 152.863 130.555 152.71 130.052 152.406C129.55 152.101 129.157 151.667 128.873 151.105C128.594 150.543 128.452 149.87 128.448 149.086V142.695H131.193V148.589C131.197 149.182 131.354 149.65 131.663 149.994C131.973 150.338 132.387 150.51 132.907 150.51C133.238 150.51 133.547 150.434 133.835 150.282C134.123 150.125 134.355 149.894 134.531 149.589C134.712 149.284 134.8 148.907 134.796 148.459Z" fill="white"/>
<path d="M139.737 152.732V142.695H142.399V144.446H142.502C142.682 143.823 142.985 143.353 143.41 143.035C143.836 142.712 144.325 142.551 144.88 142.551C145.017 142.551 145.165 142.56 145.324 142.577C145.483 142.595 145.623 142.619 145.743 142.649V145.119C145.614 145.08 145.436 145.045 145.208 145.015C144.981 144.984 144.772 144.969 144.583 144.969C144.179 144.969 143.819 145.058 143.501 145.237C143.187 145.411 142.938 145.655 142.753 145.969C142.573 146.282 142.482 146.644 142.482 147.054V152.732H139.737Z" fill="white"/>
<path d="M158.574 143.198C158.523 142.671 158.302 142.261 157.911 141.969C157.52 141.678 156.989 141.532 156.319 141.532C155.863 141.532 155.479 141.597 155.165 141.728C154.852 141.854 154.611 142.03 154.443 142.257C154.28 142.484 154.199 142.741 154.199 143.028C154.19 143.268 154.239 143.477 154.347 143.655C154.459 143.834 154.611 143.989 154.804 144.119C154.998 144.246 155.221 144.357 155.475 144.453C155.728 144.544 155.999 144.623 156.287 144.688L157.472 144.975C158.048 145.106 158.577 145.28 159.058 145.498C159.539 145.716 159.956 145.984 160.308 146.302C160.66 146.62 160.933 146.995 161.127 147.426C161.324 147.857 161.425 148.352 161.429 148.909C161.425 149.728 161.219 150.439 160.811 151.04C160.407 151.637 159.823 152.101 159.058 152.432C158.297 152.758 157.38 152.922 156.306 152.922C155.24 152.922 154.312 152.756 153.522 152.425C152.736 152.094 152.121 151.604 151.679 150.955C151.241 150.301 151.011 149.493 150.989 148.53H153.689C153.72 148.979 153.846 149.354 154.07 149.654C154.297 149.951 154.6 150.175 154.978 150.327C155.361 150.476 155.793 150.55 156.274 150.55C156.746 150.55 157.157 150.48 157.505 150.341C157.857 150.201 158.13 150.007 158.323 149.759C158.516 149.511 158.613 149.225 158.613 148.903C158.613 148.602 158.525 148.35 158.349 148.145C158.177 147.94 157.924 147.766 157.588 147.622C157.258 147.478 156.852 147.348 156.37 147.23L154.933 146.864C153.821 146.59 152.942 146.16 152.297 145.577C151.653 144.993 151.333 144.207 151.337 143.218C151.333 142.407 151.546 141.699 151.975 141.094C152.409 140.488 153.004 140.016 153.76 139.676C154.517 139.336 155.376 139.166 156.338 139.166C157.318 139.166 158.173 139.336 158.903 139.676C159.638 140.016 160.209 140.488 160.617 141.094C161.026 141.699 161.236 142.401 161.249 143.198H158.574Z" fill="white"/>
<path d="M167.727 152.928C166.726 152.928 165.861 152.713 165.13 152.281C164.404 151.846 163.843 151.24 163.448 150.465C163.053 149.685 162.855 148.781 162.855 147.753C162.855 146.716 163.053 145.81 163.448 145.034C163.843 144.254 164.404 143.649 165.13 143.218C165.861 142.782 166.726 142.564 167.727 142.564C168.728 142.564 169.592 142.782 170.318 143.218C171.049 143.649 171.611 144.254 172.007 145.034C172.402 145.81 172.6 146.716 172.6 147.753C172.6 148.781 172.402 149.685 172.007 150.465C171.611 151.24 171.049 151.846 170.318 152.281C169.592 152.713 168.728 152.928 167.727 152.928ZM167.74 150.772C168.196 150.772 168.576 150.641 168.881 150.38C169.186 150.114 169.416 149.752 169.571 149.295C169.73 148.838 169.809 148.317 169.809 147.733C169.809 147.149 169.73 146.629 169.571 146.171C169.416 145.714 169.186 145.352 168.881 145.087C168.576 144.821 168.196 144.688 167.74 144.688C167.281 144.688 166.894 144.821 166.58 145.087C166.271 145.352 166.037 145.714 165.878 146.171C165.723 146.629 165.646 147.149 165.646 147.733C165.646 148.317 165.723 148.838 165.878 149.295C166.037 149.752 166.271 150.114 166.58 150.38C166.894 150.641 167.281 150.772 167.74 150.772Z" fill="white"/>
<path d="M177.13 139.349V152.732H174.385V139.349H177.13Z" fill="white"/>
<path d="M185.677 148.459V142.695H188.423V152.732H185.787V150.909H185.684C185.46 151.497 185.089 151.97 184.569 152.327C184.053 152.684 183.424 152.863 182.68 152.863C182.019 152.863 181.437 152.71 180.934 152.406C180.431 152.101 180.038 151.667 179.755 151.105C179.475 150.543 179.334 149.87 179.329 149.086V142.695H182.075V148.589C182.079 149.182 182.236 149.65 182.545 149.994C182.854 150.338 183.269 150.51 183.789 150.51C184.12 150.51 184.429 150.434 184.717 150.282C185.005 150.125 185.237 149.894 185.413 149.589C185.593 149.284 185.682 148.907 185.677 148.459Z" fill="white"/>
<path d="M195.884 142.695V144.786H189.923V142.695H195.884ZM191.276 140.29H194.021V149.648C194.021 149.905 194.06 150.105 194.137 150.249C194.215 150.388 194.322 150.486 194.46 150.543C194.601 150.6 194.765 150.628 194.949 150.628C195.078 150.628 195.207 150.617 195.336 150.595C195.465 150.569 195.564 150.55 195.632 150.537L196.064 152.608C195.927 152.652 195.733 152.702 195.484 152.758C195.235 152.819 194.932 152.856 194.576 152.869C193.914 152.896 193.334 152.806 192.836 152.602C192.341 152.397 191.957 152.079 191.682 151.647C191.407 151.216 191.272 150.672 191.276 150.014V140.29Z" fill="white"/>
<path d="M197.672 152.732V142.695H200.418V152.732H197.672ZM199.051 141.401C198.643 141.401 198.293 141.264 198.001 140.989C197.713 140.71 197.569 140.377 197.569 139.989C197.569 139.606 197.713 139.277 198.001 139.003C198.293 138.724 198.643 138.584 199.051 138.584C199.46 138.584 199.808 138.724 200.095 139.003C200.388 139.277 200.534 139.606 200.534 139.989C200.534 140.377 200.388 140.71 200.095 140.989C199.808 141.264 199.46 141.401 199.051 141.401Z" fill="white"/>
<path d="M207.089 152.928C206.088 152.928 205.223 152.713 204.492 152.281C203.766 151.846 203.205 151.24 202.81 150.465C202.415 149.685 202.217 148.781 202.217 147.753C202.217 146.716 202.415 145.81 202.81 145.034C203.205 144.254 203.766 143.649 204.492 143.218C205.223 142.782 206.088 142.564 207.089 142.564C208.09 142.564 208.954 142.782 209.68 143.218C210.41 143.649 210.973 144.254 211.369 145.034C211.764 145.81 211.961 146.716 211.961 147.753C211.961 148.781 211.764 149.685 211.369 150.465C210.973 151.24 210.41 151.846 209.68 152.281C208.954 152.713 208.09 152.928 207.089 152.928ZM207.102 150.772C207.558 150.772 207.938 150.641 208.243 150.38C208.548 150.114 208.778 149.752 208.933 149.295C209.091 148.838 209.171 148.317 209.171 147.733C209.171 147.149 209.091 146.629 208.933 146.171C208.778 145.714 208.548 145.352 208.243 145.087C207.938 144.821 207.558 144.688 207.102 144.688C206.643 144.688 206.256 144.821 205.942 145.087C205.633 145.352 205.399 145.714 205.24 146.171C205.085 146.629 205.008 147.149 205.008 147.733C205.008 148.317 205.085 148.838 205.24 149.295C205.399 149.752 205.633 150.114 205.942 150.38C206.256 150.641 206.643 150.772 207.102 150.772Z" fill="white"/>
<path d="M216.492 146.929V152.732H213.747V142.695H216.363V144.466H216.479C216.698 143.882 217.066 143.42 217.581 143.08C218.097 142.736 218.722 142.564 219.457 142.564C220.144 142.564 220.743 142.717 221.255 143.022C221.766 143.327 222.163 143.762 222.447 144.329C222.73 144.891 222.872 145.561 222.872 146.341V152.732H220.127V146.838C220.131 146.224 219.976 145.744 219.663 145.4C219.349 145.052 218.917 144.877 218.367 144.877C217.998 144.877 217.671 144.958 217.388 145.119C217.109 145.28 216.889 145.516 216.73 145.825C216.576 146.13 216.496 146.498 216.492 146.929Z" fill="white"/>
<path d="M233.272 145.557L230.759 145.714C230.716 145.496 230.623 145.3 230.482 145.126C230.34 144.947 230.153 144.806 229.921 144.701C229.693 144.592 229.42 144.538 229.102 144.538C228.677 144.538 228.318 144.629 228.026 144.812C227.734 144.991 227.588 145.23 227.588 145.531C227.588 145.771 227.683 145.973 227.872 146.139C228.061 146.304 228.385 146.437 228.845 146.537L230.636 146.903C231.599 147.104 232.316 147.426 232.789 147.87C233.261 148.315 233.498 148.899 233.498 149.622C233.498 150.28 233.307 150.857 232.924 151.353C232.546 151.85 232.026 152.238 231.365 152.517C230.707 152.791 229.949 152.928 229.09 152.928C227.779 152.928 226.735 152.652 225.958 152.098C225.184 151.541 224.731 150.783 224.598 149.824L227.298 149.681C227.38 150.086 227.577 150.395 227.891 150.608C228.205 150.818 228.606 150.922 229.096 150.922C229.577 150.922 229.964 150.828 230.256 150.641C230.553 150.449 230.703 150.203 230.707 149.903C230.703 149.65 230.598 149.443 230.391 149.282C230.185 149.116 229.867 148.99 229.438 148.903L227.723 148.557C226.757 148.36 226.037 148.021 225.564 147.537C225.096 147.054 224.862 146.437 224.862 145.688C224.862 145.043 225.034 144.488 225.378 144.021C225.726 143.555 226.213 143.196 226.84 142.943C227.472 142.69 228.211 142.564 229.057 142.564C230.308 142.564 231.292 142.832 232.009 143.368C232.731 143.904 233.152 144.633 233.272 145.557Z" fill="white"/>
<path d="M238.21 150.903L238.139 151.621C238.084 152.196 237.976 152.769 237.817 153.34C237.663 153.915 237.499 154.436 237.327 154.902C237.16 155.368 237.025 155.734 236.921 156H235.143C235.207 155.743 235.295 155.383 235.407 154.921C235.519 154.464 235.624 153.95 235.723 153.379C235.822 152.808 235.884 152.227 235.91 151.634L235.942 150.903H238.21Z" fill="white"/>
<path d="M246.627 152.732H243.637L248.193 139.349H251.789L256.339 152.732H253.349L250.043 142.407H249.939L246.627 152.732ZM246.44 147.472H253.503V149.681H246.44V147.472Z" fill="white"/>
<path d="M262.128 152.732V139.349H267.412C268.383 139.349 269.193 139.495 269.842 139.787C270.491 140.079 270.978 140.484 271.305 141.002C271.631 141.516 271.795 142.109 271.795 142.78C271.795 143.303 271.692 143.762 271.485 144.159C271.279 144.551 270.996 144.873 270.635 145.126C270.278 145.374 269.87 145.551 269.41 145.655V145.786C269.913 145.808 270.383 145.951 270.822 146.217C271.264 146.483 271.623 146.855 271.898 147.335C272.173 147.809 272.31 148.376 272.31 149.034C272.31 149.744 272.136 150.378 271.788 150.935C271.445 151.488 270.935 151.926 270.261 152.249C269.586 152.571 268.755 152.732 267.767 152.732H262.128ZM264.918 150.419H267.193C267.971 150.419 268.538 150.269 268.895 149.968C269.251 149.663 269.43 149.258 269.43 148.753C269.43 148.382 269.341 148.056 269.165 147.772C268.989 147.489 268.738 147.267 268.411 147.106C268.089 146.945 267.705 146.864 267.258 146.864H264.918V150.419ZM264.918 144.949H266.987C267.369 144.949 267.709 144.882 268.005 144.747C268.306 144.607 268.542 144.411 268.714 144.159C268.89 143.906 268.978 143.603 268.978 143.25C268.978 142.767 268.809 142.377 268.469 142.081C268.134 141.784 267.657 141.636 267.039 141.636H264.918V144.949Z" fill="white"/>
<path d="M278.586 152.928C277.567 152.928 276.691 152.719 275.956 152.301C275.226 151.878 274.663 151.282 274.268 150.51C273.873 149.735 273.675 148.818 273.675 147.759C273.675 146.727 273.873 145.821 274.268 145.041C274.663 144.261 275.219 143.653 275.937 143.218C276.659 142.782 277.505 142.564 278.476 142.564C279.129 142.564 279.737 142.671 280.3 142.884C280.867 143.093 281.361 143.409 281.782 143.832C282.208 144.254 282.538 144.786 282.775 145.426C283.011 146.062 283.129 146.807 283.129 147.661V148.426H274.77V146.701H280.545C280.545 146.3 280.459 145.945 280.287 145.635C280.115 145.326 279.877 145.084 279.572 144.91C279.271 144.732 278.921 144.642 278.521 144.642C278.104 144.642 277.735 144.74 277.413 144.936C277.095 145.128 276.846 145.387 276.665 145.714C276.485 146.036 276.392 146.396 276.388 146.792V148.432C276.388 148.929 276.478 149.358 276.659 149.72C276.844 150.081 277.103 150.36 277.439 150.556C277.774 150.752 278.171 150.85 278.631 150.85C278.936 150.85 279.215 150.807 279.469 150.72C279.722 150.632 279.939 150.502 280.12 150.327C280.3 150.153 280.437 149.94 280.532 149.687L283.071 149.857C282.942 150.476 282.678 151.016 282.278 151.478C281.883 151.935 281.372 152.292 280.745 152.549C280.122 152.802 279.402 152.928 278.586 152.928Z" fill="white"/>
<path d="M290.186 142.695V144.786H284.225V142.695H290.186ZM285.578 140.29H288.323V149.648C288.323 149.905 288.362 150.105 288.439 150.249C288.517 150.388 288.624 150.486 288.762 150.543C288.903 150.6 289.067 150.628 289.251 150.628C289.38 150.628 289.509 150.617 289.638 150.595C289.767 150.569 289.866 150.55 289.935 150.537L290.366 152.608C290.229 152.652 290.036 152.702 289.786 152.758C289.537 152.819 289.234 152.856 288.878 152.869C288.216 152.896 287.636 152.806 287.138 152.602C286.644 152.397 286.259 152.079 285.984 151.647C285.709 151.216 285.574 150.672 285.578 150.014V140.29Z" fill="white"/>
<path d="M297.24 142.695V144.786H291.278V142.695H297.24ZM292.632 140.29H295.377V149.648C295.377 149.905 295.416 150.105 295.493 150.249C295.57 150.388 295.678 150.486 295.815 150.543C295.957 150.6 296.12 150.628 296.305 150.628C296.434 150.628 296.563 150.617 296.692 150.595C296.821 150.569 296.919 150.55 296.988 150.537L297.42 152.608C297.283 152.652 297.089 152.702 296.84 152.758C296.591 152.819 296.288 152.856 295.931 152.869C295.27 152.896 294.69 152.806 294.191 152.602C293.697 152.397 293.313 152.079 293.038 151.647C292.763 151.216 292.627 150.672 292.632 150.014V140.29Z" fill="white"/>
<path d="M303.433 152.928C302.415 152.928 301.538 152.719 300.803 152.301C300.073 151.878 299.51 151.282 299.115 150.51C298.72 149.735 298.522 148.818 298.522 147.759C298.522 146.727 298.72 145.821 299.115 145.041C299.51 144.261 300.067 143.653 300.784 143.218C301.506 142.782 302.352 142.564 303.323 142.564C303.976 142.564 304.584 142.671 305.147 142.884C305.714 143.093 306.208 143.409 306.629 143.832C307.055 144.254 307.385 144.786 307.622 145.426C307.858 146.062 307.976 146.807 307.976 147.661V148.426H299.618V146.701H305.392C305.392 146.3 305.306 145.945 305.134 145.635C304.962 145.326 304.724 145.084 304.419 144.91C304.118 144.732 303.768 144.642 303.368 144.642C302.952 144.642 302.582 144.74 302.26 144.936C301.942 145.128 301.693 145.387 301.512 145.714C301.332 146.036 301.24 146.396 301.235 146.792V148.432C301.235 148.929 301.325 149.358 301.506 149.72C301.691 150.081 301.951 150.36 302.286 150.556C302.621 150.752 303.018 150.85 303.478 150.85C303.783 150.85 304.062 150.807 304.316 150.72C304.569 150.632 304.786 150.502 304.967 150.327C305.147 150.153 305.285 149.94 305.379 149.687L307.918 149.857C307.789 150.476 307.525 151.016 307.126 151.478C306.73 151.935 306.219 152.292 305.592 152.549C304.969 152.802 304.249 152.928 303.433 152.928Z" fill="white"/>
<path d="M309.768 152.732V142.695H312.429V144.446H312.533C312.713 143.823 313.016 143.353 313.441 143.035C313.867 142.712 314.356 142.551 314.911 142.551C315.048 142.551 315.196 142.56 315.355 142.577C315.514 142.595 315.654 142.619 315.774 142.649V145.119C315.645 145.08 315.467 145.045 315.239 145.015C315.012 144.984 314.803 144.969 314.614 144.969C314.21 144.969 313.849 145.058 313.531 145.237C313.218 145.411 312.969 145.655 312.784 145.969C312.603 146.282 312.513 146.644 312.513 147.054V152.732H309.768Z" fill="white"/>
<path d="M321.445 152.732V139.349H330.184V141.682H324.236V144.871H329.604V147.204H324.236V152.732H321.445Z" fill="white"/>
<path d="M337.737 148.459V142.695H340.483V152.732H337.847V150.909H337.744C337.52 151.497 337.149 151.97 336.629 152.327C336.113 152.684 335.484 152.863 334.741 152.863C334.079 152.863 333.497 152.71 332.994 152.406C332.492 152.101 332.098 151.667 331.815 151.105C331.536 150.543 331.394 149.87 331.389 149.086V142.695H334.135V148.589C334.139 149.182 334.296 149.65 334.605 149.994C334.915 150.338 335.329 150.51 335.849 150.51C336.18 150.51 336.489 150.434 336.777 150.282C337.065 150.125 337.297 149.894 337.473 149.589C337.654 149.284 337.742 148.907 337.737 148.459Z" fill="white"/>
<path d="M347.944 142.695V144.786H341.983V142.695H347.944ZM343.336 140.29H346.082V149.648C346.082 149.905 346.12 150.105 346.198 150.249C346.275 150.388 346.382 150.486 346.52 150.543C346.662 150.6 346.825 150.628 347.01 150.628C347.138 150.628 347.267 150.617 347.396 150.595C347.525 150.569 347.624 150.55 347.693 150.537L348.124 152.608C347.987 152.652 347.794 152.702 347.544 152.758C347.295 152.819 346.992 152.856 346.636 152.869C345.974 152.896 345.394 152.806 344.896 152.602C344.402 152.397 344.017 152.079 343.742 151.647C343.467 151.216 343.332 150.672 343.336 150.014V140.29Z" fill="white"/>
<path d="M356.08 148.459V142.695H358.826V152.732H356.19V150.909H356.087C355.863 151.497 355.492 151.97 354.972 152.327C354.456 152.684 353.827 152.863 353.084 152.863C352.422 152.863 351.84 152.71 351.337 152.406C350.834 152.101 350.441 151.667 350.158 151.105C349.878 150.543 349.737 149.87 349.732 149.086V142.695H352.478V148.589C352.482 149.182 352.639 149.65 352.948 149.994C353.258 150.338 353.672 150.51 354.192 150.51C354.523 150.51 354.832 150.434 355.12 150.282C355.408 150.125 355.64 149.894 355.816 149.589C355.997 149.284 356.085 148.907 356.08 148.459Z" fill="white"/>
<path d="M361.022 152.732V142.695H363.683V144.446H363.786C363.967 143.823 364.27 143.353 364.695 143.035C365.12 142.712 365.61 142.551 366.164 142.551C366.302 142.551 366.45 142.56 366.609 142.577C366.768 142.595 366.908 142.619 367.028 142.649V145.119C366.899 145.08 366.721 145.045 366.493 145.015C366.265 144.984 366.057 144.969 365.868 144.969C365.464 144.969 365.103 145.058 364.785 145.237C364.472 145.411 364.223 145.655 364.038 145.969C363.857 146.282 363.767 146.644 363.767 147.054V152.732H361.022Z" fill="white"/>
<path d="M372.498 152.928C371.48 152.928 370.603 152.719 369.869 152.301C369.138 151.878 368.575 151.282 368.18 150.51C367.785 149.735 367.587 148.818 367.587 147.759C367.587 146.727 367.785 145.821 368.18 145.041C368.575 144.261 369.132 143.653 369.849 143.218C370.571 142.782 371.417 142.564 372.388 142.564C373.041 142.564 373.649 142.671 374.212 142.884C374.779 143.093 375.273 143.409 375.694 143.832C376.12 144.254 376.451 144.786 376.687 145.426C376.923 146.062 377.041 146.807 377.041 147.661V148.426H368.683V146.701H374.457C374.457 146.3 374.371 145.945 374.199 145.635C374.027 145.326 373.789 145.084 373.484 144.91C373.183 144.732 372.833 144.642 372.433 144.642C372.017 144.642 371.647 144.74 371.325 144.936C371.007 145.128 370.758 145.387 370.577 145.714C370.397 146.036 370.305 146.396 370.3 146.792V148.432C370.3 148.929 370.391 149.358 370.571 149.72C370.756 150.081 371.016 150.36 371.351 150.556C371.686 150.752 372.083 150.85 372.543 150.85C372.848 150.85 373.127 150.807 373.381 150.72C373.634 150.632 373.851 150.502 374.032 150.327C374.212 150.153 374.35 149.94 374.444 149.687L376.983 149.857C376.854 150.476 376.59 151.016 376.191 151.478C375.795 151.935 375.284 152.292 374.657 152.549C374.034 152.802 373.314 152.928 372.498 152.928Z" fill="white"/>
<path fill-rule="evenodd" clip-rule="evenodd" d="M0 8.83291C0 3.89989 3.84608 0 8.71103 0H325.575C361.11 0 390 29.2945 390 65.3268V99.1863C390 116.469 376.152 130.285 359.33 130.285H30.6701C13.6255 130.285 0 116.244 0 99.1863V8.83291ZM9.07399 9.20095V99.1863C9.07399 111.204 18.6779 121.085 30.6701 121.085H359.33C371.182 121.085 380.926 111.346 380.926 99.1863V65.3268C380.926 34.3761 356.098 9.20095 325.575 9.20095H9.07399Z" fill="#81C216"/>
<path d="M56.0785 100.659C50.9971 100.659 46.6416 99.5545 42.8305 97.3463C39.2009 95.138 36.2973 92.0097 34.301 87.9613C32.3047 83.9129 31.2158 79.1284 31.2158 73.6078C31.2158 68.2712 32.3047 63.4868 34.301 59.2543C36.2973 55.2059 39.0194 51.8936 42.649 49.6853C46.2786 47.2931 50.4527 46.189 55.3526 46.189C58.2563 46.189 61.16 46.741 63.8822 47.6611C66.6044 48.5812 69.1451 50.2374 71.3228 52.2616C73.5006 54.2858 75.3154 57.0461 76.5858 60.3584C77.8561 63.6708 78.4006 67.7192 78.4006 72.5037V76.1841L37.0232 80.9686V73.6078L68.4192 68.8233C68.4192 66.063 67.8747 63.6708 66.7859 61.6466C65.697 59.6224 64.2451 57.9662 62.2489 56.678C60.2526 55.3899 58.0748 54.8379 55.3526 54.8379C52.449 54.8379 50.0897 55.5739 47.912 56.8621C45.7342 58.3342 44.1009 60.1744 43.012 62.3826C41.9231 64.5909 41.3787 67.1671 41.3787 69.7434V75.816C41.3787 79.3124 41.9231 82.2567 43.1935 84.833C44.4638 87.2252 46.0972 89.2494 48.2749 90.5376C50.4527 91.8257 52.9934 92.5618 56.0785 92.5618C58.0748 92.5618 59.7081 92.1937 61.3415 91.6417C62.9748 91.0896 64.2451 90.1695 65.5155 89.0654C66.6044 87.9613 67.5118 86.4891 68.2377 84.833L77.8561 86.6731C77.1302 89.6175 75.6784 92.0097 73.6821 94.2179C71.6858 96.4262 69.3266 98.0823 66.2414 99.1864C63.1563 100.107 59.7081 100.659 56.0785 100.659Z" fill="#81C216"/>
<path d="M95.824 68.4553V99.7385H85.6611V46.925H95.461V55.5739H96.187C97.4573 52.8137 99.2721 50.6054 101.813 48.7652C104.354 47.1091 107.62 46.189 111.431 46.189C115.061 46.189 118.146 46.925 120.687 48.3972C123.409 49.8693 125.405 52.0776 126.857 55.0219C128.309 57.9662 129.035 61.6466 129.035 65.879V99.3705H118.872V67.3512C118.872 63.4867 117.965 60.5424 115.968 58.3342C113.972 56.126 111.25 55.0219 107.802 55.0219C105.442 55.0219 103.446 55.5739 101.631 56.494C99.8166 57.5981 98.3647 59.0703 97.2758 61.0945C96.3684 63.1187 95.824 65.511 95.824 68.4553Z" fill="#81C216"/>
<path d="M154.079 100.843C150.812 100.843 147.727 100.291 145.187 99.0024C142.464 97.7143 140.468 95.8741 138.835 93.4819C137.202 91.0896 136.476 88.1453 136.476 84.6489C136.476 81.7046 137.02 79.3124 138.109 77.2882C139.198 75.448 140.831 73.7918 142.646 72.6877C144.642 71.5836 146.638 70.6635 148.998 70.1114C151.357 69.5594 153.716 69.1913 156.257 68.8233C159.342 68.4553 161.883 68.0872 163.879 67.9032C165.875 67.7192 167.146 67.3512 168.053 66.7991C168.96 66.247 169.323 65.3269 169.323 64.0388V63.8548C169.323 60.9105 168.416 58.5182 166.783 56.8621C165.149 55.2059 162.609 54.4698 159.342 54.4698C155.894 54.4698 153.172 55.2059 151.357 56.678C149.361 58.1502 148.09 59.8064 147.364 61.8306L137.927 59.6224C139.016 56.494 140.65 53.9178 142.827 51.8936C145.005 49.8693 147.546 48.3972 150.268 47.4771C153.172 46.557 156.075 46.189 159.161 46.189C161.157 46.189 163.516 46.373 165.694 46.925C168.053 47.4771 170.231 48.3972 172.227 49.6853C174.223 50.9735 175.857 52.8136 177.309 55.2059C178.579 57.5981 179.305 60.7265 179.305 64.5909V99.5545H169.505V92.3777H169.142C168.416 93.6659 167.509 94.954 166.238 96.2421C164.968 97.5303 163.335 98.6344 161.157 99.3705C159.342 100.475 156.801 100.843 154.079 100.843ZM156.257 92.5618C158.979 92.5618 161.52 92.0097 163.516 90.9056C165.512 89.8015 166.964 88.3293 168.053 86.4891C169.142 84.6489 169.686 82.8088 169.686 80.6005V73.7918C169.323 74.1599 168.598 74.5279 167.69 74.8959C166.601 75.264 165.512 75.448 164.242 75.632C162.972 75.816 161.701 76.0001 160.431 76.1841C159.161 76.3681 158.072 76.5521 157.346 76.5521C155.349 76.7361 153.535 77.2882 151.901 77.8402C150.268 78.3923 148.998 79.3124 148.09 80.4165C147.183 81.5206 146.638 82.9928 146.638 84.833C146.638 87.4092 147.546 89.2494 149.361 90.5376C150.994 92.0097 153.353 92.5618 156.257 92.5618Z" fill="#81C216"/>
<path d="M188.196 99.7384V29.4431H198.359V55.5738H198.904C199.448 54.4697 200.355 53.1816 201.444 51.7094C202.533 50.2373 204.167 48.9491 205.981 47.845C207.978 46.7409 210.518 46.1888 213.785 46.1888C217.959 46.1888 221.77 47.293 225.037 49.5012C228.303 51.7094 230.844 54.8377 232.84 58.8862C234.655 62.9346 235.744 67.7191 235.744 73.4237C235.744 79.1283 234.837 83.9127 233.022 88.1452C231.207 92.1936 228.666 95.3219 225.218 97.5302C221.952 99.7384 218.14 100.842 213.966 100.842C210.881 100.842 208.159 100.29 206.163 99.1863C204.167 98.0822 202.533 96.7941 201.444 95.3219C200.355 93.8498 199.448 92.5616 198.904 91.4575H197.996V99.7384H188.196ZM198.178 73.2396C198.178 76.92 198.722 80.2324 199.811 82.9926C200.9 85.7529 202.352 87.9612 204.348 89.6173C206.344 91.2735 208.885 92.0096 211.789 92.0096C214.874 92.0096 217.415 91.2735 219.411 89.6173C221.407 87.9612 223.04 85.7529 223.948 82.9926C225.037 80.2324 225.581 76.92 225.581 73.4237C225.581 69.9273 225.037 66.799 224.129 64.0387C223.04 61.2784 221.589 59.0702 219.592 57.414C217.596 55.7578 215.055 55.0218 211.97 55.0218C209.066 55.0218 206.526 55.7578 204.529 57.414C202.533 58.8862 200.9 61.0944 199.992 63.8547C198.722 66.4309 198.178 69.7433 198.178 73.2396Z" fill="#81C216"/>
<path d="M253.347 29.4431V99.7384H243.185V29.4431H253.347Z" fill="#81C216"/>
<path d="M285.47 100.659C280.389 100.659 276.033 99.5545 272.222 97.3463C268.593 95.138 265.689 92.0097 263.693 87.9613C261.696 83.9129 260.607 79.1284 260.607 73.6078C260.607 68.2712 261.696 63.4868 263.693 59.2543C265.689 55.2059 268.411 51.8936 272.041 49.6853C275.67 47.2931 279.844 46.189 284.744 46.189C287.648 46.189 290.552 46.741 293.274 47.6611C295.996 48.5812 298.537 50.2374 300.714 52.2616C302.892 54.2858 304.707 57.0461 305.977 60.3584C307.248 63.6708 307.792 67.7192 307.792 72.5037V76.1841L266.415 80.9686V73.6078L297.811 68.8233C297.811 66.063 297.266 63.6708 296.177 61.6466C295.089 59.6224 293.637 57.9662 291.64 56.678C289.644 55.3899 287.466 54.8379 284.744 54.8379C281.841 54.8379 279.481 55.5739 277.304 56.8621C275.126 58.3342 273.492 60.1744 272.404 62.3826C271.315 64.5909 270.77 67.1671 270.77 69.7434V75.816C270.77 79.3124 271.315 82.2567 272.585 84.833C273.855 87.2252 275.489 89.2494 277.667 90.5376C279.844 91.8257 282.385 92.5618 285.47 92.5618C287.466 92.5618 289.1 92.1937 290.733 91.6417C292.366 91.0896 293.637 90.1695 294.907 89.0654C295.996 87.9613 296.903 86.4891 297.629 84.833L307.248 86.6731C306.522 89.6175 305.07 92.0097 303.074 94.2179C301.077 96.4262 298.718 98.0823 295.633 99.1864C292.729 100.107 289.281 100.659 285.47 100.659Z" fill="#81C216"/>
<path d="M325.393 68.4553V99.7385H315.23V46.925H325.03V55.5739H325.756C327.027 52.8137 328.841 50.6054 331.382 48.7652C333.923 47.1091 337.19 46.189 341.001 46.189C344.63 46.189 347.715 46.925 350.256 48.3972C352.797 49.8693 354.975 52.0776 356.426 55.0219C357.878 57.9662 358.604 61.6466 358.604 65.879V99.3705H348.441V67.3512C348.441 63.4867 347.534 60.5424 345.538 58.3342C343.541 56.126 340.819 55.0219 337.371 55.0219C335.012 55.0219 333.015 55.5739 331.201 56.494C329.386 57.5981 327.934 59.0703 326.845 61.0945C325.938 63.1187 325.393 65.511 325.393 68.4553Z" fill="#81C216"/>
</svg>
